Coordinates
version=1
nRows=9
nColumns=63
inDegrees=yes

Units are S.I. units (second, meters, Newtons, ...)
If the header above contains a line with 'inDegrees', this indicates whether rotational values are in degrees (yes) or radians (no).

endheader
time	pelvis_tilt	pelvis_list	pelvis_rotation	pelvis_tx	pelvis_ty	pelvis_tz	hip_flexion_r	hip_adduction_r	hip_rotation_r	knee_angle_r	knee_angle_r_beta	ankle_angle_r	subtalar_angle_r	mtp_angle_r	hip_flexion_l	hip_adduction_l	hip_rotation_l	knee_angle_l	knee_angle_l_beta	ankle_angle_l	subtalar_angle_l	mtp_angle_l	L5_S1_Flex_Ext	L5_S1_Lat_Bending	L5_S1_axial_rotation	L4_L5_Flex_Ext	L4_L5_Lat_Bending	L4_L5_axial_rotation	L3_L4_Flex_Ext	L3_L4_Lat_Bending	L3_L4_axial_rotation	L2_L3_Flex_Ext	L2_L3_Lat_Bending	L2_L3_axial_rotation	L1_L2_Flex_Ext	L1_L2_Lat_Bending	L1_L2_axial_rotation	L1_T12_Flex_Ext	L1_T12_Lat_Bending	L1_T12_axial_rotation	Abs_r3	Abs_r2	Abs_r1	Abs_t1	Abs_t2	neck_flexion	neck_bending	neck_rotation	arm_flex_r	arm_add_r	arm_rot_r	elbow_flex_r	pro_sup_r	wrist_flex_r	wrist_dev_r	arm_flex_l	arm_add_l	arm_rot_l	elbow_flex_l	pro_sup_l	wrist_flex_l	wrist_dev_l
0.000000	4.051511	-4.146393	118.445376	0.320070	0.568786	0.929603	8.750893	-1.738806	-17.124274	16.607178	0.289850	34.042406	8.002351	0.000000	7.306054	1.293616	1.652903	9.199302	0.160558	29.228232	4.864402	0.000000	0.156297	0.081739	-0.889566	0.290259	0.108713	-0.945164	0.256780	0.198741	-0.945164	0.178632	0.198741	-0.778371	0.145137	0.166683	-0.722773	0.089308	0.126614	-0.667175	1.116412	0.924652	-4.947502	0.000000	0.000000	25.432893	-0.404953	2.398265	14.419922	-10.329208	60.456062	40.464496	88.042218	-0.979081	7.012067	19.380276	-5.847141	71.278737	43.681539	68.574695	0.758499	22.659542
0.016667	3.682580	-4.178834	119.682851	0.318285	0.568646	0.928078	7.882731	-2.123949	-18.161375	16.328234	0.284981	33.671023	7.306801	0.000000	7.297855	1.609564	0.867847	9.641096	0.168269	29.764780	6.991700	0.000000	0.157854	0.020544	-1.116534	0.293151	0.027324	-1.186317	0.259338	0.049951	-1.186317	0.180411	0.049951	-0.976967	0.146583	0.041894	-0.907184	0.090198	0.031823	-0.837400	1.127536	0.232399	-6.209826	0.000000	0.000000	25.504093	-0.126331	2.106692	15.130192	-10.021835	63.740339	39.755341	84.590222	-1.328966	6.368843	19.199603	-6.033073	73.467066	42.926584	62.376457	-1.179906	19.904570
0.033333	3.387659	-4.215258	120.649338	0.317000	0.568502	0.926849	7.167281	-2.427611	-19.066943	16.037517	0.279907	33.381706	6.927389	0.000000	7.299720	1.864235	0.292034	10.000051	0.174534	30.169441	8.598590	0.000000	0.159051	-0.030757	-1.293216	0.295373	-0.040906	-1.374042	0.261304	-0.074781	-1.374042	0.181779	-0.074781	-1.131564	0.147694	-0.062719	-1.050738	0.090882	-0.047642	-0.969912	1.136083	-0.347924	-7.192481	0.000000	0.000000	25.587646	0.116431	1.841684	15.656969	-9.744130	66.250111	39.204612	81.984329	-1.520596	5.864553	19.055523	-6.205357	75.078669	42.393679	57.932286	-2.752168	17.950200
0.050000	3.159606	-4.255166	121.367291	0.316163	0.568355	0.925889	6.591386	-2.658187	-19.848707	15.738535	0.274689	33.166712	6.830173	0.000000	7.307484	2.064154	-0.085826	10.278258	0.179389	30.450980	9.720790	0.000000	0.159999	-0.072896	-1.423843	0.297133	-0.096952	-1.512833	0.262862	-0.177240	-1.512833	0.182862	-0.177240	-1.245863	0.148575	-0.148650	-1.156873	0.091423	-0.112916	-1.067882	1.142854	-0.824617	-7.918988	0.000000	0.000000	25.682395	0.325661	1.604304	16.016668	-9.496025	68.048698	38.799763	80.128318	-1.569407	5.480536	18.938469	-6.365127	76.158479	42.060503	55.025673	-3.991345	16.695704
0.066667	2.991276	-4.298055	121.859163	0.315718	0.568203	0.925170	6.141889	-2.824078	-20.514400	15.434796	0.269388	33.018298	6.981211	0.000000	7.316977	2.215846	-0.277023	10.477811	0.182872	30.618161	10.394016	0.000000	0.160810	-0.106609	-1.512644	0.298640	-0.141790	-1.607184	0.264194	-0.259208	-1.607184	0.183789	-0.259208	-1.323563	0.149328	-0.217396	-1.229023	0.091887	-0.165137	-1.134483	1.148648	-1.205979	-8.412871	0.000000	0.000000	25.787185	0.503685	1.395614	16.225707	-9.277455	69.199424	38.528251	78.925972	-1.490837	5.198133	18.838878	-6.513520	76.751428	41.904734	53.440111	-4.930493	16.040355
0.083333	2.875527	-4.343428	122.147408	0.315613	0.568046	0.924665	5.805633	-2.933679	-21.071753	15.129808	0.264065	32.928723	7.346562	0.000000	7.324034	2.325839	-0.292847	10.600800	0.185019	30.679747	10.653987	0.000000	0.161596	-0.132627	-1.563848	0.300101	-0.176394	-1.661588	0.265487	-0.322470	-1.661588	0.184689	-0.322470	-1.368367	0.150058	-0.270454	-1.270626	0.092336	-0.205440	-1.172886	1.154267	-1.500308	-8.697652	0.000000	0.000000	25.900860	0.652829	1.216675	16.300504	-9.088352	69.765609	38.377531	78.281071	-1.300320	4.998684	18.747186	-6.651672	76.902447	41.904049	52.959091	-5.602671	15.883426
0.100000	2.805215	-4.390783	122.254478	0.315793	0.567882	0.924346	5.569461	-2.995390	-21.528497	14.827077	0.258781	32.890242	7.892283	0.000000	7.324486	2.400657	-0.144587	10.649319	0.185866	30.644504	10.536419	0.000000	0.162470	-0.151686	-1.581684	0.301724	-0.201742	-1.680539	0.266923	-0.368809	-1.680539	0.185687	-0.368809	-1.383974	0.150870	-0.309318	-1.285118	0.092836	-0.234962	-1.186263	1.160510	-1.715902	-8.796853	0.000000	0.000000	26.022265	0.775419	1.068550	16.257474	-8.928649	69.810577	38.335060	78.097398	-1.013293	4.863529	18.653827	-6.780719	76.656470	42.036127	53.366104	-6.040934	16.124190
0.116667	2.773197	-4.439620	122.202827	0.316203	0.567712	0.924187	5.420218	-3.017607	-21.892363	14.530111	0.253598	32.895113	8.584432	0.000000	7.314167	2.446827	0.156466	10.625460	0.185449	30.521195	10.077028	0.000000	0.163544	-0.164518	-1.570382	0.303717	-0.218809	-1.668531	0.268686	-0.400009	-1.668531	0.186914	-0.400009	-1.374085	0.151867	-0.335485	-1.275936	0.093449	-0.254839	-1.177787	1.168178	-1.861062	-8.733996	0.000000	0.000000	26.150245	0.873782	0.952302	16.113036	-8.798279	69.397650	38.388293	78.278734	-0.645193	4.774008	18.549237	-6.901797	76.058429	42.278645	54.444642	-6.278341	16.661920
0.133333	2.772330	-4.489440	122.014909	0.316791	0.567533	0.924161	5.344746	-3.008730	-22.171083	14.242418	0.248577	32.935594	9.389069	0.000000	7.288909	2.470875	0.599022	10.531316	0.183806	30.318586	9.311533	0.000000	0.164929	-0.171857	-1.534172	0.306290	-0.228570	-1.630058	0.270962	-0.417854	-1.630058	0.188497	-0.417854	-1.342400	0.153153	-0.350452	-1.246515	0.094240	-0.266207	-1.150629	1.178071	-1.944085	-8.532604	0.000000	0.000000	26.283642	0.950245	0.868991	15.883605	-8.697176	68.590149	38.524685	78.728860	-0.211456	4.711461	18.423851	-7.016041	75.153255	42.609281	55.978197	-6.347948	17.395889
